<?xml version="1.0" encoding="utf-8"?>
<!-- Generator: Adobe Illustrator 22.0.1, SVG Export Plug-In . SVG Version: 6.00 Build 0)  -->
<svg version="1.1" id="Layer_1" xmlns="http://www.w3.org/2000/svg" xmlns:xlink="http://www.w3.org/1999/xlink" x="0px" y="0px"
	 viewBox="0 0 218.3 70.1" style="enable-background:new 0 0 218.3 70.1;" xml:space="preserve">
<style type="text/css">
	.st0{fill:#015691;}
	.st1{fill:#33BEE5;}
	.st2{fill:#FFFFFF;}
	.st3{fill:#0B8CC8;}
</style>
<g>
	<path class="st0" d="M166.2,19.3c1.2,0.1,1.4,0.4,1.4,0.9v22.1c0,0.4-0.2,0.8-1.4,0.9v0.6h9.8v-0.6c-1.1-0.1-1.4-0.4-1.4-0.9V20.1
		c0-0.4,0.3-0.8,1.4-0.9v-0.6h-9.8V19.3z"/>
	<path class="st0" d="M200.7,25.4c0-1.1,0.8-2.3,4.9-2.6c4.4-0.2,7.7,1.1,8.6,1.8l0.8,0.6l1.9-6.3c-0.6,0-0.1-0.1-0.9-0.1
		c-1.3,0-5.8-1.5-11.5-1.2c-7.1,0.4-10.3,4-10.3,8.8c0,9.2,17.2,4.9,17.1,9c-0.1,2.1-1.7,3.5-6.4,3.7c-4.9,0.2-7.9-1.2-8.9-2
		c-0.5-0.3-1.4-0.9-1.3-1.1l-1,0.3l1.7,6.8c1.9,0.3,6.2,1.3,11.4,1c7-0.3,11.5-4.8,11.5-8.8C218.2,24.4,200.7,29.6,200.7,25.4"/>
	<path class="st0" d="M140.4,19.3c0.6,0.1,1.2,0.3,1.2,0.9v17.1c-6.4-11.1-8.3-14.8-9.3-18v-0.6h-2h-9.5v0.6
		c1.3,0.1,1.4,0.4,1.4,0.9v22.1c0,0.4-0.1,0.8-1.4,0.9v0.6h8.6v-0.6c-1.2-0.1-1.4-0.4-1.4-0.9V24.8c0.9,1.3,1.5,2.4,2.3,3.5
		c5.9,9.4,7.6,12.8,8.3,14.8v0.6h9.4v-0.6c-0.3-0.1-0.3-0.4-0.3-0.9V20.1c0-0.4,0.2-0.8,1.4-0.9v-0.6h-8.7L140.4,19.3L140.4,19.3z"
		/>
	<path class="st0" d="M94,19.3c1.2,0.1,1.6,0.4,1.6,0.9V34c0,3.7-1.6,5.1-5.4,5.1s-6-1.4-6-5.1V20.1c0-0.4,0.7-0.8,1.8-0.9v-0.6
		h-9.7v0.6c1.1,0.1,1.3,0.4,1.3,0.9v12.8c0,8.3,5.3,11.1,12.5,11.1c7.3,0,12.3-2.7,12.3-11.1V20.1c0-0.4,0.3-0.8,1.4-0.9v-0.6H94
		V19.3z"/>
	<path class="st1" d="M216,55.4c0.5,0,0.9,0.2,1.1,0.3v2.8c-0.2,0.1-0.6,0.3-1.1,0.3c-1,0-1.2-0.8-1.2-1.7
		C214.9,56.2,215,55.4,216,55.4 M215.8,54.4c-1.5,0-2,1-2,2.7s0.6,2.7,2,2.7c0.7,0,1.2-0.2,1.7-0.5l0.2,0.4h0.7V52h-1.1v2.8
		C216.8,54.6,216.3,54.4,215.8,54.4z M213.3,54.5c-0.1,0-0.3-0.1-0.5-0.1c-0.7,0-1.2,0.2-1.6,0.5l-0.2-0.4h-0.7v5.1h1.1v-3.9
		c0.3-0.2,0.7-0.3,1.3-0.3c0.2,0,0.4,0,0.6,0.1L213.3,54.5L213.3,54.5z M208.1,57.2v1.3c-0.3,0.2-0.6,0.3-1.1,0.3
		c-0.6,0-0.8-0.4-0.8-0.8c0-0.5,0.3-0.7,0.8-0.8H208.1z M208.1,56.2v0.3l-1.1,0.1c-1.2,0.1-1.9,0.6-1.9,1.7c0,0.8,0.4,1.6,1.8,1.6
		c0.6,0,1.1-0.2,1.5-0.5l0.2,0.4h0.7v-3.4c0-1.1-0.4-1.8-2.1-1.8c-0.6,0-1.3,0.1-1.7,0.3v1c0.4-0.2,0.9-0.3,1.6-0.3
		C207.9,55.4,208.1,55.6,208.1,56.2z M202.1,55.4c1,0,1.2,0.8,1.2,1.7c0,1-0.2,1.7-1.2,1.7c-0.5,0-0.9-0.2-1.1-0.3v-2.8
		C201.2,55.6,201.5,55.4,202.1,55.4z M202.4,54.4c-0.5,0-1,0.2-1.4,0.4V52h-1.1v7.7h0.7l0.2-0.4c0.4,0.3,1,0.5,1.7,0.5
		c1.5,0,2-1,2-2.7C204.4,55.5,203.8,54.4,202.4,54.4z M198.8,59.7c0.1,0,0.2,0,0.2,0v-0.9c-0.3,0-0.4-0.1-0.4-0.4V52h-1.1v6.4
		C197.4,59.3,197.8,59.7,198.8,59.7z M195.2,57.2v1.3c-0.3,0.2-0.6,0.3-1.1,0.3c-0.6,0-0.8-0.4-0.8-0.8c0-0.5,0.3-0.7,0.8-0.8H195.2
		z M195.2,56.2v0.3l-1.1,0.1c-1.2,0.1-1.9,0.6-1.9,1.7c0,0.8,0.4,1.6,1.8,1.6c0.6,0,1.1-0.2,1.5-0.5l0.2,0.4h0.7v-3.4
		c0-1.1-0.4-1.8-2.1-1.8c-0.6,0-1.3,0.1-1.7,0.3v1c0.4-0.2,0.9-0.3,1.6-0.3C194.9,55.4,195.2,55.6,195.2,56.2z M187.1,54.6l2,5.2
		h0.9l2-5.2h-1.2l-1.2,3.7l-1.2-3.7H187.1z M184.1,55.2c-1-0.1-1.5-0.3-1.5-1.1c0-0.7,0.4-1.1,1.6-1.1c0.8,0,1.5,0.2,2,0.4v-1.1
		c-0.4-0.2-1.1-0.4-2.1-0.4c-2.1,0-2.7,1.1-2.7,2.2c0,1.4,0.7,1.9,2.6,2.1c1,0.1,1.4,0.3,1.4,1.2c0,0.7-0.4,1.3-1.8,1.3
		c-1,0-1.8-0.3-2.2-0.5v1.1c0.5,0.3,1.5,0.4,2.3,0.4c2.1,0,2.9-1,2.9-2.4C186.7,55.8,185.7,55.4,184.1,55.2z M178.7,59.7v-3.6
		c0-1-0.5-1.6-1.8-1.6c-0.6,0-1.1,0.2-1.7,0.5l-0.2-0.4h-0.7v5.1h1.1v-4c0.3-0.2,0.6-0.3,1.2-0.3c0.5,0,0.8,0.2,0.8,0.8v3.5H178.7z
		 M171.8,53.1c0,0.4,0.3,0.7,0.7,0.7s0.7-0.3,0.7-0.7s-0.3-0.7-0.7-0.7S171.8,52.6,171.8,53.1z M173.3,59.7c0.1,0,0.2,0,0.2,0v-0.9
		c-0.3,0-0.4-0.1-0.4-0.4v-3.8H172v3.9C172,59.3,172.4,59.7,173.3,59.7z M166.9,55.4c0.9,0,0.9,0.6,0.9,1.3h-2
		C165.9,56,166.1,55.4,166.9,55.4z M164.7,57.1c0,1.7,0.6,2.7,2.3,2.7c0.6,0,1.2-0.1,1.8-0.3v-1c-0.4,0.2-1,0.3-1.6,0.3
		c-1,0-1.3-0.5-1.3-1.3h3.2c0-0.2,0-0.3,0-0.5c0-1.4-0.3-2.6-2.1-2.6C165.3,54.4,164.7,55.5,164.7,57.1z M164.2,54.5
		c-0.1,0-0.3-0.1-0.5-0.1c-0.7,0-1.2,0.2-1.6,0.5l-0.2-0.4h-0.7v5.1h1.1v-3.9c0.3-0.2,0.7-0.3,1.3-0.3c0.2,0,0.4,0,0.6,0.1
		L164.2,54.5L164.2,54.5z M160.3,58.8c-0.1,0-0.3,0-0.4,0c-0.6,0-0.8-0.2-0.8-0.8v-2.5h1.4v-1H159V53l-1.1,0.3v1.2l-0.9,0.3v0.7h0.9
		v2.7c0,1.1,0.7,1.6,1.8,1.6c0.2,0,0.5,0,0.6-0.1V58.8z M156.4,59.7v-3.6c0-1-0.5-1.6-1.8-1.6c-0.6,0-1.1,0.2-1.7,0.5l-0.2-0.4H152
		v5.1h1.1v-4c0.3-0.2,0.6-0.3,1.2-0.3c0.5,0,0.8,0.2,0.8,0.8v3.5H156.4z M149.2,55.4c0.9,0,0.9,0.6,0.9,1.3h-2
		C148.1,56,148.3,55.4,149.2,55.4z M146.9,57.1c0,1.7,0.6,2.7,2.3,2.7c0.6,0,1.2-0.1,1.8-0.3v-1c-0.4,0.2-1,0.3-1.6,0.3
		c-1,0-1.3-0.5-1.3-1.3h3.2c0-0.2,0-0.3,0-0.5c0-1.4-0.3-2.6-2.1-2.6C147.5,54.4,146.9,55.5,146.9,57.1z M141.1,55.8
		c0,2.5,0.9,4,3.2,4c0.9,0,1.4-0.2,1.8-0.3v-1.1c-0.6,0.2-1,0.3-1.7,0.3c-1.5,0-2.1-1-2.1-2.9s0.6-2.9,2.1-2.9
		c0.7,0,1.1,0.1,1.7,0.3v-1.1c-0.4-0.2-0.9-0.3-1.8-0.3C142,51.9,141.1,53.3,141.1,55.8z M133.8,54.6l1.9,4.9l-1.3,2.7h1.3l2.9-7.7
		h-1.3l-1.2,3.6l-1.2-3.6L133.8,54.6L133.8,54.6z M133.3,58.8c-0.1,0-0.3,0-0.4,0c-0.6,0-0.8-0.2-0.8-0.8v-2.5h1.4v-1h-1.4V53
		l-1.1,0.3v1.2l-0.9,0.3v0.7h0.9v2.7c0,1.1,0.7,1.6,1.8,1.6c0.2,0,0.5,0,0.6-0.1v-0.9H133.3z M127.8,53.1c0,0.4,0.3,0.7,0.7,0.7
		s0.7-0.3,0.7-0.7s-0.3-0.7-0.7-0.7C128.1,52.3,127.8,52.6,127.8,53.1z M129.3,59.7c0.1,0,0.2,0,0.2,0v-0.9c-0.3,0-0.4-0.1-0.4-0.4
		v-3.8H128v3.9C128,59.3,128.4,59.7,129.3,59.7z M124.2,56c0-0.5,0.4-0.6,1-0.6s1.1,0.1,1.6,0.3v-1c-0.4-0.2-0.9-0.3-1.6-0.3
		c-1.5,0-2.1,0.7-2.1,1.6c0,0.9,0.4,1.4,1.9,1.5c0.7,0.1,0.8,0.3,0.8,0.6c0,0.4-0.4,0.6-1.2,0.6c-0.6,0-1.2-0.2-1.5-0.3v1
		c0.3,0.1,1,0.3,1.7,0.3c1.6,0,2.2-0.8,2.2-1.6c0-1-0.4-1.4-1.9-1.5C124.4,56.5,124.2,56.4,124.2,56z M122.6,54.5
		c-0.1,0-0.3-0.1-0.5-0.1c-0.7,0-1.2,0.2-1.6,0.5l-0.2-0.4h-0.7v5.1h1.1v-3.9c0.3-0.2,0.7-0.3,1.3-0.3c0.2,0,0.4,0,0.6,0.1
		C122.6,55.5,122.6,54.5,122.6,54.5z M116.6,55.4c0.9,0,0.9,0.6,0.9,1.3h-2C115.5,56,115.8,55.4,116.6,55.4z M114.3,57.1
		c0,1.7,0.6,2.7,2.3,2.7c0.6,0,1.2-0.1,1.8-0.3v-1c-0.4,0.2-1,0.3-1.6,0.3c-1,0-1.3-0.5-1.3-1.3h3.2c0-0.2,0-0.3,0-0.5
		c0-1.4-0.3-2.6-2.1-2.6C114.9,54.4,114.3,55.5,114.3,57.1z M109.3,54.6l2,5.2h0.9l2-5.2H113l-1.2,3.7l-1.2-3.7H109.3z M107.1,53.1
		c0,0.4,0.3,0.7,0.7,0.7c0.4,0,0.7-0.3,0.7-0.7s-0.3-0.7-0.7-0.7C107.4,52.3,107.1,52.6,107.1,53.1z M108.6,59.7c0.1,0,0.2,0,0.2,0
		v-0.9c-0.3,0-0.4-0.1-0.4-0.4v-3.8h-1.1v3.9C107.3,59.3,107.7,59.7,108.6,59.7z M106.2,59.7v-3.6c0-1-0.5-1.6-1.8-1.6
		c-0.6,0-1.1,0.2-1.7,0.5l-0.2-0.4h-0.7v5.1h1.1v-4c0.3-0.2,0.6-0.3,1.2-0.3c0.5,0,0.8,0.2,0.8,0.8v3.5H106.2z M98.1,59.8
		c1,0,2.8-0.4,2.8-2.5V52h-1.1v5.1c0,1.4-1,1.6-1.6,1.6s-1.6-0.2-1.6-1.6V52h-1.1v5.3C95.3,59.4,97.1,59.8,98.1,59.8z M90.4,55.4
		c0.9,0,0.9,0.6,0.9,1.3h-2C89.3,56,89.5,55.4,90.4,55.4z M88.1,57.1c0,1.7,0.6,2.7,2.3,2.7c0.6,0,1.2-0.1,1.8-0.3v-1
		c-0.5,0.2-1,0.3-1.6,0.3c-1,0-1.3-0.5-1.3-1.3h3.2c0-0.2,0-0.3,0-0.5c0-1.4-0.3-2.6-2.1-2.6C88.7,54.4,88.1,55.5,88.1,57.1z
		 M86.1,56.2v3.5h1.1v-3.6c0-1-0.5-1.6-1.8-1.6c-0.5,0-1,0.1-1.4,0.4V52h-1v7.7h1.1v-4c0.3-0.2,0.6-0.3,1.2-0.3
		C85.9,55.4,86.1,55.7,86.1,56.2z M82.3,53.1V52h-5.1v1.1h2v6.6h1.1v-6.6H82.3z"/>
	<polygon class="st2" points="32.4,9.8 32.3,9.9 32.2,10 32,10 31.8,10 31.6,10 31.4,9.9 31.2,9.9 30.9,9.9 30.8,9.9 30.5,9.9 
		30.3,9.9 30,9.9 28.6,10 27,10.1 25.5,10.3 24.1,10.5 22.6,10.8 21.2,11.3 19.7,11.7 18.4,12.3 17.1,12.9 15.8,13.5 14.5,14.2 
		13.3,15.1 12.1,15.9 11,16.8 9.9,17.7 8.8,18.7 7.8,19.7 6.9,20.9 6,22 5.2,23.2 4.4,24.4 3.7,25.6 3,26.9 2.4,28.3 1.8,29.6 
		1.4,31 0.9,32.5 0.7,33.9 0.4,35.4 0.2,36.9 0.1,38.4 0,39.9 0.1,41.5 0.2,43 0.4,44.6 0.7,46 0.9,47.5 1.4,48.9 1.8,50.3 
		2.4,51.7 3,53 3.7,54.3 4.4,55.5 5.2,56.8 6,58 6.9,59.1 7.8,60.2 8.8,61.2 9.9,62.2 11,63.2 12.1,64.1 13.3,64.9 14.5,65.7 
		15.8,66.4 17.1,67.1 18.4,67.7 19.7,68.2 21.2,68.7 22.6,69.1 24.1,69.4 25.5,69.7 27,69.9 28.6,70 30.1,70.1 31.6,70 33.2,69.9 
		34.7,69.7 36.2,69.4 37.6,69.1 39.1,68.7 40.4,68.2 41.8,67.7 43.1,67.1 44.4,66.4 45.7,65.7 46.9,64.9 48.1,64.1 49.2,63.2 
		50.3,62.2 51.4,61.2 52.3,60.2 53.3,59.1 54.2,58 55,56.8 55.8,55.5 56.5,54.3 57.2,53 57.8,51.7 58.3,50.3 58.8,48.9 59.2,47.5 
		59.6,46 59.8,44.6 60,43 60.1,41.5 60.2,39.9 60.2,38.6 60,37.2 59.9,35.9 59.7,34.6 59.4,33.2 59.1,32 58.7,30.8 58.3,29.5 
		57.8,28.3 57.3,27.1 56.7,26 56.1,24.8 55.4,23.7 54.7,22.6 53.9,21.6 53.1,20.6 52.3,19.7 51.4,18.7 50.5,17.8 49.5,17 48.5,16.2 
		47.5,15.5 46.5,14.8 45.3,14 44.6,13.6 44.9,13.3 44.9,13.3 45.2,13 45.6,12.6 45.9,12 46,11.4 46,10.9 46,10.3 45.8,9.8 45.5,9.4 
		45.2,8.9 44.9,8.7 44.9,8.7 44.6,8.2 44.5,8.1 44.7,7.9 44.9,7.5 45,7.3 45.4,6.9 45.8,6.5 46,6 46.2,5.5 46.3,4.9 46.2,4.3 
		46.1,4 46.2,3.6 46.3,2.8 46.2,2.1 45.9,1.5 45.5,1 45,0.6 44.5,0.3 43.9,0.1 43.2,0 42.5,0.1 42.3,0.2 42.3,0.2 41.8,0.1 
		41.4,0.1 41,0.2 40.5,0.3 40.1,0.5 39.8,0.7 39.5,0.9 39.3,1.1 39.2,1.1 38.7,1.3 38.2,1.5 37.8,2 37.8,2 37.4,1.7 37,1.4 
		36.6,1.2 36.3,0.9 35.6,0.5 34.8,0.3 33.9,0.3 33,0.7 32.2,1.4 31.9,2.1 31.2,2.8 30.9,3.7 30.9,4.6 31,5 30.9,5.4 30.9,6.2 
		31.2,6.9 31.3,7.1 31.3,7.2 31.4,7.6 31.5,8 31.6,8.4 31.8,8.7 32.1,9.1 32.1,9.1 32.2,9.3 	"/>
	<path class="st1" d="M41.2,19.1c-0.8-0.9-1.7-1.8-2.5-2.6c-0.3-0.3-0.7-0.6-1-0.9c-0.2-0.2-0.5-0.4-0.7-0.5
		c-0.3-0.3-0.7-0.5-0.9-0.8l0.8-1.4c0.1,0,0.1,0,0.1,0c0.2,0.1,0.5,0.1,0.7,0.2c0.4,0.1,0.7,0.2,1,0.4c1.7,0.5,3.2,1.2,4.7,2
		c0.5,0.2,0.8,0.5,1.2,0.7c-0.4,0.4-0.8,0.8-1.2,1.2C42.7,18,42,18.6,41.2,19.1 M37.6,17.3c0.4,0.3,0.7,0.6,1,0.9
		c0.5,0.5,1,1,1.4,1.5c-0.4,0.3-0.9,0.5-1.4,0.8c-0.3,0.2-0.7,0.3-1,0.5c-0.2,0.1-0.5,0.2-0.7,0.2c-0.2,0.1-0.4,0.2-0.7,0.2
		c-0.7-2.9-0.6-4.4-0.5-5.7c0.4,0.3,0.8,0.7,1.2,0.9C37.2,16.9,37.4,17.1,37.6,17.3z M22.5,15.5c-0.4,0.4-0.8,0.7-1.2,1
		c-0.9,0.8-1.7,1.7-2.5,2.6c-0.8-0.5-1.5-1.1-2.3-1.7c-0.4-0.4-0.8-0.7-1.1-1.1c0.4-0.2,0.7-0.5,1.1-0.7c1.5-0.9,3.1-1.6,4.8-2.1
		c0.4-0.2,0.8-0.3,1.2-0.4c1.2-0.4,2.4-0.7,3.7-0.8c0.3,0,0.7-0.1,1-0.1c-0.4,0.2-0.7,0.4-1,0.6C24.8,13.6,23.6,14.5,22.5,15.5z
		 M24.8,21.8c0.4-1,0.8-2,1.3-3c0.9-2,2-3.9,3.3-5.7v9.4c-1.1,0-2.2-0.1-3.3-0.4C25.7,22,25.2,21.9,24.8,21.8z M37.5,10.8
		C37,9.9,38,9.2,38.8,9.7c-0.1-0.6,1-0.9,1.3-0.2c0.2-0.3,0.4-0.4,0.6-0.5c0.4-0.1,0.9,0.1,1,0.7c0.4-0.9,1.7-0.3,1.4,0.5
		c1.1,0.1,1.2,1.5-0.1,1.6c0.3,0.8-0.8,1.1-1.4,0.5c-0.1,0.5-0.5,0.8-0.9,0.7c-0.2-0.1-0.5-0.2-0.7-0.7c-0.7,0.5-1.2,0.4-1.4-0.3
		C37.8,12.3,37.2,11.6,37.5,10.8z M42.9,5.6c0.4,1-0.4,2-1.4,1.6c0,0.7-0.2,1.1-0.8,1.1c-0.2,0-0.5-0.1-0.8-0.2
		c0,0.9-1.4,1.1-1.6,0.4c-1.2,1-2.5,2.6-3.3,4.6c-0.9,2.4-1.3,5.3,0,8.7c0,0,0,0,0,0.1c-1.4,0.4-2.8,0.5-4.3,0.6
		c-0.7-4.9,1.1-9,4.3-12.3c0.8-0.8,1.7-1.5,2.7-2.3C37,7.5,37,6.2,38,6.1c-0.4-0.9,0.4-2,1.3-1.5c-0.4-1,0.1-1.8,1.4-1.2V3.3
		c0-0.1,0-0.1,0-0.2c0.1-0.7,0.9-1.2,1.8-0.5c0.8-1.2,2.6,0.5,1,1.4C44.7,4.6,44,6,42.9,5.6z M36.4,6.1c0.7,0.4,0.6,1.2-0.1,1.4
		c0.4,0.9-0.3,1.7-1.2,1.4c0,0.1,0,0.1-0.1,0.2c-0.5,0.2-1.1-0.5-0.7-1.3c-0.5,0.3-1.2-0.8-0.6-1.4c-0.7-0.1-0.8-1.1-0.2-1.5
		c-0.6-0.2-0.5-1.4,0.4-1.4c-0.2-1.1,0.7-1.4,1.1-0.9c0.2,0.2,0.3,0.4,0.4,0.7c0.5-0.5,1.5,0.5,0.9,1.2C37,4.4,37.2,5.9,36.4,6.1z
		 M27.6,13.3L27.6,13.3L27.6,13.3c-0.6,0.9-1.1,1.7-1.5,2.4c-0.9,1.8-1.6,3.4-2.5,5.7c-0.4-0.1-0.8-0.2-1.2-0.4
		c-0.4-0.2-0.8-0.3-1.2-0.5c-0.5-0.2-0.9-0.5-1.4-0.8c0.5-0.5,0.9-1.1,1.4-1.5c0.4-0.4,0.8-0.8,1.2-1.1c1.1-1.1,2.4-2,3.7-2.9
		C26.6,13.9,27.1,13.6,27.6,13.3L27.6,13.3z"/>
	<path class="st0" d="M42.2,59.9c0.4-0.5,0.8-1,1.1-1.5c1.6-2.3,2.8-4.7,3.8-7.3c0.2,0.1,0.4,0.2,0.5,0.4c0.9,0.6,1.8,1.2,2.6,1.9
		c0.9,0.8,1.8,1.5,2.7,2.4c-0.8,1.1-1.7,2.3-2.7,3.3c-0.8,0.8-1.7,1.7-2.6,2.4c-0.7,0.5-1.3,1-2,1.5c-0.7-0.8-1.5-1.5-2.3-2.1
		C43,60.5,42.6,60.2,42.2,59.9 M47.7,49.8C47.7,49.8,47.6,49.8,47.7,49.8c-0.1-0.1,0-0.2,0-0.2c0.9-2.8,1.4-5.8,1.4-8.9h1.2h7.6
		c-0.1,5.1-1.7,9.8-4.2,13.9c-1.1-1.1-2.2-2-3.4-3C49.4,50.9,48.5,50.3,47.7,49.8z M36.6,58.4c0.1,0.1,0.2,0.1,0.3,0.1
		c0.2,0.1,0.5,0.2,0.7,0.3c0.4,0.2,0.7,0.3,1,0.5c0.6,0.2,1.1,0.5,1.6,0.8l-1.6,1.4l-1,0.8l-0.7,0.6L34.5,65l-1.9,1.5
		c0.7-1.1,1.3-2.3,1.9-3.4C35.3,61.6,36,60,36.6,58.4z M41.1,59.2c-0.8-0.5-1.6-0.9-2.5-1.3c-0.3-0.2-0.7-0.4-1-0.5
		c-0.2-0.1-0.4-0.1-0.6-0.2c0.2-0.5,0.4-1.1,0.6-1.7c0.4-1.2,0.7-2.5,1-3.8c0.4-1.4,0.6-2.8,0.8-4.1c1.4,0.4,2.7,0.9,3.9,1.5
		c0.9,0.4,1.8,0.9,2.7,1.4c-0.7,2-1.5,3.9-2.7,5.6C42.7,57.1,41.9,58.1,41.1,59.2z M47.7,43.2c-0.2,2-0.6,4-1.2,5.9
		c-1-0.6-2-1.1-3.1-1.5c-1.2-0.5-2.4-1-3.7-1.4c0.2-1.8,0.4-3.7,0.4-5.5h3.4h4.3h0.1C47.8,41.5,47.7,42.3,47.7,43.2z M34.5,57.8
		c0.4,0.1,0.6,0.1,0.9,0.2c-0.3,0.7-0.6,1.4-0.9,2.1c-1.1,2.4-2.4,4.7-3.8,6.9v-9.8C32,57.4,33.3,57.5,34.5,57.8z M35.9,56.8
		c-0.4-0.1-0.9-0.2-1.4-0.4c-1.2-0.2-2.5-0.4-3.8-0.5V46c1.3,0.1,2.5,0.1,3.8,0.3c0.8,0.1,1.7,0.3,2.4,0.5c0.2,0.1,0.5,0.1,0.7,0.1
		c0.2,0.1,0.4,0.1,0.6,0.2c-0.2,1.1-0.4,2.3-0.6,3.4c-0.2,0.9-0.4,1.9-0.7,2.8C36.6,54.6,36.3,55.7,35.9,56.8z M30.8,40.7h3.7h2.4
		h0.7h1h0.1c0,0.6,0,1.1-0.1,1.7c-0.1,1.2-0.1,2.3-0.2,3.4c-0.2-0.1-0.5-0.1-0.8-0.2c-0.2-0.1-0.5-0.1-0.7-0.1
		c-0.8-0.2-1.6-0.4-2.4-0.5c-1.2-0.1-2.5-0.2-3.8-0.3L30.8,40.7z M24.7,58c0.5-0.1,1-0.2,1.5-0.4c1.1-0.2,2.1-0.3,3.3-0.4v9.9
		c-1.2-1.8-2.3-3.8-3.3-5.7C25.6,60.3,25.1,59.1,24.7,58z M24.2,56.7c-0.7-2-1.3-4.1-1.7-6.3c-0.2-1.1-0.5-2.1-0.6-3.3
		c0.2-0.1,0.4-0.1,0.6-0.1c1.2-0.4,2.4-0.5,3.7-0.7c1.1-0.1,2.1-0.2,3.3-0.2V56c-1.1,0-2.2,0.1-3.3,0.3
		C25.5,56.4,24.8,56.5,24.2,56.7z M22.5,45.6c-0.3,0.1-0.5,0.1-0.8,0.2c-0.2-1.7-0.3-3.4-0.4-5.2h1.1h3.7h3.2l0.1,4.1
		c-1.1,0.1-2.2,0.1-3.3,0.2C24.9,45.2,23.6,45.3,22.5,45.6z M22.5,63c-0.4-0.4-0.8-0.7-1.2-1.1c-0.6-0.6-1.1-1.2-1.7-1.8
		c0.6-0.3,1.1-0.7,1.7-0.9c0.4-0.2,0.8-0.4,1.2-0.5c0.3-0.1,0.7-0.2,1-0.4l2.7,5.4l1.5,3v0.1c-0.5-0.4-1-0.7-1.5-0.9
		C24.8,65,23.6,64,22.5,63z M23,57.1c-0.2,0.1-0.4,0.1-0.5,0.2c-0.4,0.2-0.8,0.3-1.2,0.5c-0.9,0.4-1.7,0.8-2.5,1.3
		c-0.8-1-1.6-2.1-2.3-3.3c-1-1.7-1.8-3.4-2.5-5.3c0.8-0.5,1.6-0.9,2.5-1.3c1.4-0.7,2.7-1.2,4.1-1.6c0.2,1.2,0.4,2.4,0.7,3.5
		c0.4,1.5,0.7,2.9,1.2,4.3C22.6,55.9,22.8,56.5,23,57.1z M12.3,42.8c-0.1-0.8-0.1-1.5-0.1-2.2h0.1h4.2h3.6c0.1,1.8,0.2,3.7,0.4,5.5
		c-1.4,0.4-2.7,0.9-4,1.5c-1,0.5-2,0.9-3,1.5C12.9,47.1,12.4,45,12.3,42.8z M18.5,60.7c0.9,1,1.8,2,2.8,2.9c0.4,0.4,0.8,0.7,1.2,1
		c1.1,1,2.4,1.9,3.7,2.7c0.1,0.1,0.1,0.1,0.1,0.1s-0.1,0-0.1-0.1c-1.2-0.1-2.5-0.4-3.7-0.8c-0.4-0.1-0.8-0.2-1.2-0.4
		c-1.7-0.5-3.3-1.2-4.8-2.1c-0.4-0.2-0.8-0.5-1.2-0.7c0.4-0.4,0.8-0.8,1.2-1.1C17.1,61.8,17.8,61.2,18.5,60.7z M12.3,51.5
		c0.2-0.1,0.4-0.2,0.6-0.4c0.9,2.5,2.1,4.9,3.6,7.1c0.4,0.5,0.8,1.1,1.2,1.6c-0.4,0.2-0.8,0.5-1.2,0.8c-0.8,0.7-1.6,1.4-2.3,2.1
		c-0.7-0.5-1.2-0.9-1.9-1.5c-0.9-0.7-1.7-1.5-2.5-2.3c-0.9-1-1.8-2.1-2.6-3.2C8,54.9,8.9,54,9.8,53.3C10.6,52.7,11.4,52.1,12.3,51.5
		z M10.9,40.7c0,3,0.5,6,1.4,8.8c0.1,0.1,0.1,0.2,0.1,0.4C12.3,50,12.3,50,12.3,50c-0.8,0.5-1.7,1.1-2.5,1.7
		c-1.2,0.9-2.3,1.9-3.3,2.9c-2.5-4-4.1-8.8-4.2-13.9h7.5C9.8,40.7,10.9,40.7,10.9,40.7z M36.9,65.1c0.2-0.2,0.5-0.4,0.7-0.6
		c0.4-0.2,0.7-0.6,1-0.9c0.9-0.8,1.9-1.8,2.7-2.8c0.7,0.5,1.4,1,2,1.6c0.4,0.4,0.8,0.7,1.2,1.1c-0.4,0.2-0.8,0.5-1.2,0.7
		c-1.5,0.8-3,1.5-4.7,2c-0.3,0.1-0.7,0.2-1,0.3c-0.2,0.1-0.5,0.2-0.7,0.2c-0.8,0.2-1.6,0.4-2.4,0.5c-0.3,0.1-0.6,0.1-0.9,0.1
		c0.3-0.2,0.6-0.4,0.9-0.5C35.3,66.3,36.2,65.7,36.9,65.1z"/>
	<path class="st3" d="M47.6,28.4c-0.2,0.2-0.4,0.3-0.6,0.4c-0.9-2.5-2.2-4.9-3.7-7c-0.4-0.7-0.8-1.2-1.3-1.8c0.5-0.4,0.9-0.7,1.3-1
		c0.8-0.7,1.7-1.4,2.4-2.2c0.7,0.5,1.3,0.9,2,1.5c0.9,0.8,1.8,1.5,2.6,2.4c0.9,1,1.8,2.1,2.7,3.3c-0.8,0.9-1.7,1.7-2.7,2.4
		C49.4,27.3,48.5,27.9,47.6,28.4 M49.1,39.3c-0.1-3-0.6-5.9-1.4-8.7c-0.1-0.1-0.1-0.3-0.2-0.4c0.1-0.1,0.1-0.1,0.2-0.1
		c0.9-0.5,1.8-1.1,2.6-1.8c1.2-0.9,2.4-2,3.4-3c2.5,4.1,4,8.9,4.1,14h-7.6H49.1z M30.7,35.1c1.3-0.1,2.5-0.1,3.8-0.3
		c0.8-0.1,1.7-0.3,2.4-0.4c0.2-0.1,0.5-0.1,0.7-0.2c0.2-0.1,0.4-0.1,0.7-0.2c0.2,1.4,0.3,2.8,0.4,4.2c0.1,0.4,0.1,0.7,0.1,1.1h-0.1
		h-1H37h-2.4h-3.8v-4.2H30.7z M12.3,37.3c0.2-2.3,0.7-4.5,1.4-6.6c0.9,0.5,1.8,1,2.8,1.4c1.3,0.6,2.7,1.1,4,1.5
		c-0.2,1.9-0.4,3.7-0.4,5.6h-3.6h-4.2h-0.1C12.2,38.6,12.2,38,12.3,37.3z M12.3,29.9c0.1,0.1,0.2,0.1,0.2,0.1
		c-0.1,0.2-0.2,0.5-0.2,0.7c-0.8,2.7-1.3,5.6-1.4,8.6H9.8H2.3c0.1-5.1,1.6-10,4.1-14c1.1,1.1,2.2,2.1,3.4,3
		C10.6,28.9,11.4,29.4,12.3,29.9z M47.6,37c0.1,0.8,0.1,1.5,0.1,2.3h-0.1h-4.3h-3.4c-0.1-1.9-0.2-3.7-0.4-5.6
		c1.3-0.4,2.6-0.9,3.8-1.4c1.1-0.5,2.1-0.9,3-1.5C47,32.8,47.4,34.8,47.6,37z M17.9,20.1c-0.5,0.7-1,1.3-1.4,2
		c-1.4,2.1-2.6,4.3-3.6,6.8c-0.2-0.2-0.4-0.3-0.7-0.5c-0.8-0.5-1.7-1.2-2.5-1.8C8.9,25.8,8,25,7.2,24.1C8,23,8.9,21.8,9.8,20.8
		c0.8-0.8,1.6-1.6,2.5-2.4c0.7-0.5,1.3-1,2-1.5c0.7,0.7,1.5,1.4,2.3,2C17,19.4,17.4,19.7,17.9,20.1z M16.5,30.7
		c-0.8-0.4-1.6-0.8-2.4-1.2c0.7-1.8,1.5-3.4,2.4-5c0.8-1.2,1.6-2.5,2.5-3.6c0.7,0.4,1.5,0.8,2.3,1.2c0.4,0.2,0.8,0.3,1.2,0.4
		c0.2,0.1,0.5,0.2,0.7,0.3c-0.2,0.7-0.5,1.5-0.7,2.2c-0.5,1.4-0.8,2.8-1.2,4.3c-0.2,1.1-0.4,2.1-0.6,3.2
		C19.3,31.9,17.8,31.4,16.5,30.7z M37.6,30c0.2,0.9,0.4,1.8,0.5,2.7c-0.1,0-0.3,0.1-0.5,0.1c-0.2,0.1-0.5,0.1-0.7,0.2
		c-0.8,0.1-1.6,0.3-2.4,0.4c-1.2,0.2-2.5,0.3-3.8,0.3v-10c1.3-0.1,2.6-0.2,3.8-0.5c0.4-0.1,0.7-0.2,1.1-0.3c0.5,1.4,1,2.8,1.4,4.2
		C37.2,28.2,37.5,29.1,37.6,30z M39.3,32.4c-0.2-1.1-0.4-2.3-0.7-3.4c-0.3-1.3-0.6-2.5-1-3.8c-0.2-0.7-0.5-1.4-0.7-2.1
		c-0.1-0.1-0.1-0.3-0.2-0.5c0.1,0,0.1,0,0.2,0c0.2-0.1,0.5-0.2,0.7-0.3c0.4-0.1,0.7-0.3,1-0.4c0.8-0.4,1.5-0.8,2.3-1.2
		c0.8,1.1,1.7,2.3,2.4,3.4c1.1,1.7,1.9,3.5,2.6,5.3c-0.8,0.5-1.7,0.9-2.6,1.3C42.1,31.4,40.7,31.9,39.3,32.4z M22.5,32.8
		c-0.2-0.1-0.4-0.1-0.5-0.2c0.1-0.9,0.3-2,0.5-2.9c0.5-2.3,1.1-4.5,1.9-6.7c0.6,0.2,1.2,0.3,1.8,0.4c1.1,0.2,2.1,0.3,3.3,0.3v10
		c-1.1,0-2.2-0.1-3.3-0.2C24.9,33.4,23.6,33.1,22.5,32.8z M26.1,39.3h-3.7h-1.1c0.1-1.8,0.2-3.6,0.4-5.3c0.2,0.1,0.5,0.1,0.8,0.2
		c1.2,0.3,2.4,0.5,3.7,0.7c1.1,0.1,2.1,0.2,3.3,0.2l-0.1,4.2C29.4,39.3,26.1,39.3,26.1,39.3z"/>
</g>
</svg>
